<svg width="2914" height="805" viewBox="0 0 2914 805" fill="none" xmlns="http://www.w3.org/2000/svg">
<path d="M404.267 742.836C255.192 782.78 169.672 785.843 122.771 610.806L39.1438 298.704C16.81 215.353 60.1881 140.202 144.448 117.625C243.523 91.0779 409.743 33.6354 495.296 156.626C521.278 194.331 532.827 244.838 533.808 289.243C626.258 297.227 675.473 347.567 705.996 461.48C727.337 541.126 703.089 606.188 633.929 655.49C569.828 701.452 481.12 722.243 404.267 742.836ZM161.571 181.527C124.533 191.451 87.3997 223.239 103.033 281.584L185.917 590.909C219.169 715.009 253.81 714.66 387.145 678.933C539.924 637.996 674.863 600.847 642.106 478.599C618.78 391.544 591.08 362.239 528.642 355.147C518.912 426.244 482.827 506.389 411.53 525.493C329.122 547.574 257.647 473.42 282.373 395.327C298.554 348.308 353.443 293.896 467.734 287.095C464.967 247.139 455.852 216.825 440.818 194.053C385.762 114.507 263.424 154.236 161.571 181.527ZM345.507 416.129C335.359 448.627 373.063 478.228 408.726 455.769C433.593 441.165 454.223 395.932 461.889 354.173C415.459 358.673 359.044 377.76 345.507 416.129Z" fill="white"/>
<path d="M1002.31 392.26C1033.68 400.921 1054.65 421.514 1054.65 461.159C1054.65 508.118 1026.17 539.104 967.486 539.104H853V261.004H943.05C1003.08 261.004 1034.64 289.872 1034.64 337.216C1034.64 361.658 1024.06 381.676 1002.31 392.26ZM943.628 308.928H908.608V374.362H946.129C970.758 374.362 981.534 359.736 981.534 340.876C981.534 322.4 969.411 308.928 943.628 308.928ZM956.711 489.639C987.882 489.639 998.657 472.896 998.657 454.805C998.657 436.329 988.074 418.816 955.556 418.816H908.607V489.639H956.711ZM1305.18 311.815H1202.04V374.941H1293.44V425.172H1202.04V488.104H1305.18V539.105H1143.93V261.005H1305.18V311.815ZM1588.6 539.1L1568.4 481.748H1451.6L1431.4 539.1H1372.33L1474.7 261H1545.31L1647.68 539.1H1588.61H1588.6ZM1468.54 433.439H1551.47L1510.1 315.461L1468.54 433.439ZM1830.28 542.949C1769.28 542.949 1721.57 511.771 1721.57 441.722V261.006H1779.29V433.829C1779.29 476.17 1801.8 491.95 1830.28 491.95C1858.95 491.95 1881.66 475.976 1881.66 433.829V261.006H1939.38V441.722C1939.38 511.776 1891.46 542.949 1830.28 542.949ZM2204.72 261V311.808H2138.72V539.093H2081.57V311.808H2015.19V261H2204.72ZM2286.3 539.1V261H2344.02V539.1H2286.3ZM2617.64 311.815H2511.81V374.941H2603.21V425.172H2511.81V539.109H2453.7V261.01H2617.65L2617.64 311.815ZM2913.38 261L2821.98 405.918V539.1H2764.07V407.268L2672.09 261H2735.97L2792.74 355.688L2849.69 261H2913.38Z" fill="white"/>
</svg>
